<?xml version="1.0" encoding="utf-8"?>
<!-- Generator: Adobe Illustrator 16.0.0, SVG Export Plug-In . SVG Version: 6.00 Build 0)  -->
<!DOCTYPE svg PUBLIC "-//W3C//DTD SVG 1.1//EN" "http://www.w3.org/Graphics/SVG/1.1/DTD/svg11.dtd">
<svg version="1.1" id="Calque_1" xmlns="http://www.w3.org/2000/svg" xmlns:xlink="http://www.w3.org/1999/xlink" x="0px" y="0px"
	 width="44px" height="52px" viewBox="0 0 44 52" enable-background="new 0 0 44 52" xml:space="preserve">
<g>
	<g>
		<g>
			<g>
				<g>
					<path fill="#2A559D" d="M37.551,23.911c0.004,0.005,0.008,0.009,0.014,0.01C37.559,23.912,37.555,23.91,37.551,23.911z"/>
					<path fill="#2A559D" d="M36.394,19.254l0.029,0.048C36.407,19.27,36.399,19.257,36.394,19.254z"/>
					<path fill="#2A559D" d="M37.575,26.781l-0.003-0.007c-0.005,0.044-0.011,0.104-0.021,0.201L37.575,26.781z"/>
					<path fill="#2A559D" d="M29.608,11.679l0.056,0.034C29.64,11.698,29.63,11.691,29.608,11.679z"/>
					<path fill="#2A559D" d="M34.197,15.687c-0.017-0.012-0.037-0.036-0.059-0.059C34.163,15.66,34.183,15.684,34.197,15.687z"/>
					<path fill="#2A559D" d="M37.149,28.25c0.002,0,0.027-0.077,0.027-0.077C37.168,28.173,37.159,28.2,37.149,28.25z"/>
					<path fill="#2A559D" d="M36.47,31.022l0.007-0.005C36.477,31.013,36.474,31.017,36.47,31.022z"/>
					<path fill="#2A559D" d="M36.915,29.99c0.004-0.021,0.009-0.05,0.015-0.08C36.921,29.943,36.908,29.985,36.915,29.99z"/>
					<path fill="#2A559D" d="M36.937,29.872L36.93,29.91C36.936,29.89,36.939,29.872,36.937,29.872z"/>
					<path fill="#2A559D" d="M6.926,30.431c0.026,0.08,0.062,0.145,0.097,0.213L6.926,30.431z"/>
					<path fill="#2A559D" d="M20.563,9.802l0.017-0.011C20.564,9.797,20.561,9.8,20.563,9.802z"/>
					<path fill="#2A559D" d="M7.115,30.476l0.015,0.058C7.122,30.503,7.119,30.489,7.115,30.476z"/>
					<path fill="#2A559D" d="M37.244,26.737c-0.006-0.083,0.019-0.251-0.001-0.25C37.249,26.574,37.224,26.697,37.244,26.737z"/>
					<path fill="#2A559D" d="M18.795,10.875l-0.052,0.015C18.768,10.883,18.782,10.879,18.795,10.875z"/>
					<path fill="#2A559D" d="M7.115,30.476l-0.017-0.067l-0.002,0.023C7.104,30.451,7.11,30.464,7.115,30.476z"/>
					<polygon fill="#2A559D" points="11.735,13.695 11.738,13.693 11.75,13.678 					"/>
					<path fill="#2A559D" d="M11.333,14.025c0.025-0.026,0.05-0.051,0.078-0.08C11.366,13.984,11.345,14.007,11.333,14.025z"/>
					<path fill="#2A559D" d="M7.022,30.644l0.055,0.121C7.061,30.72,7.042,30.681,7.022,30.644z"/>
					<path fill="#2A559D" d="M7.957,18.455l0.023-0.046C7.971,18.427,7.966,18.437,7.957,18.455z"/>
					<path fill="#2A559D" d="M34.429,16.003l0.024,0.038C34.46,16.042,34.46,16.038,34.429,16.003z"/>
					<polygon fill="#2A559D" points="31.436,13.649 31.435,13.649 31.435,13.649 					"/>
					<path fill="#2A559D" d="M31.603,13.76c-0.045-0.043-0.122-0.09-0.167-0.11C31.483,13.69,31.531,13.725,31.603,13.76z"/>
					<path fill="#2A559D" d="M31.113,13.368l0.017,0.016C31.122,13.376,31.117,13.372,31.113,13.368z"/>
					<polygon fill="#2A559D" points="33.924,16.208 33.926,16.207 33.923,16.206 					"/>
					<path fill="#2A559D" d="M33.413,15.603c-0.012-0.018-0.021-0.033-0.03-0.046C33.39,15.569,33.399,15.584,33.413,15.603z"/>
					<polygon fill="#2A559D" points="29.452,12.304 29.453,12.304 29.45,12.302 					"/>
					<path fill="#2A559D" d="M22.398,10.444c0.368,0.009,0.794-0.006,1.216,0.014c0.427,0.054,0.839,0.105,1.203,0.151
						c0.166-0.021,0.39,0.047,0.62,0.088l0.013,0.056l0.193,0.029c0.073,0.033-0.148-0.025-0.017,0.026l0.079-0.014
						c0.011,0.021,0.483,0.127,0.156,0.087c0.005-0.019,0.72,0.229,0.72,0.229c0.158,0.054,0.106-0.009,0.278,0.061
						c0.03,0.025-0.067-0.012-0.059,0.01c0.51,0.216,0.632,0.15,1.106,0.368l-0.044-0.011c0.12,0.042,0.192,0.066,0.247,0.085
						c-0.039-0.075-0.099-0.012-0.231-0.102c0.03-0.034,0.192,0.057,0.196,0.022c0.105,0.063,0.178,0.08,0.275,0.125
						c0.149,0.108,0.391,0.212,0.496,0.306c0.085,0.031,0.197,0.034,0.364,0.128c0.101,0.102-0.043,0.011,0.109,0.121l0.038-0.006
						c0.129,0.084,0.105,0.078,0.094,0.084c0.14,0.087,0.135,0.043,0.302,0.165l-0.11-0.04c0.135,0.072,0.185,0.108,0.364,0.221
						c-0.012,0.01-0.084-0.036-0.135-0.072c0.077,0.091,0.177,0.09,0.228,0.126c-0.009-0.019-0.132-0.1-0.057-0.083
						c0.089,0.056,0.207,0.095,0.251,0.164l-0.106-0.047c0.188,0.113,0.112,0.043,0.312,0.199c-0.012-0.006-0.01,0.002-0.018,0.003
						c0.148,0.068,0.301,0.214,0.491,0.354l-0.041-0.021c0.082,0.049,0.139,0.062,0.18,0.093c-0.101-0.09-0.066-0.075-0.062-0.101
						c0.122,0.134,0.242,0.133,0.453,0.338c-0.013,0.008-0.077-0.024-0.129-0.087c-0.104-0.031-0.136-0.011-0.284-0.108
						c0.092,0.063,0.194,0.142,0.162,0.138l0.051-0.009c0.052,0.043,0.092,0.078,0.13,0.11c0.038-0.001-0.078-0.119,0.052-0.032
						c0.143,0.103,0.045,0.091,0.077,0.095c0.195,0.143,0.104,0.032,0.273,0.19c-0.02-0.012-0.059-0.036-0.071-0.052
						c0.115,0.12,0.32,0.254,0.32,0.327c-0.025-0.008-0.036-0.003-0.081-0.046l0.006-0.004c-0.161-0.093,0.121,0.093,0.048,0.089
						c0.008-0.028,0.172,0.138,0.244,0.215l-0.004-0.045c0.313,0.18-0.054,0.029,0.203,0.261c0.171,0.138-0.055-0.063,0.057,0.015
						c0.104,0.107,0.125,0.163,0.29,0.305c0.036,0.048,0.104,0.154,0.088,0.183c0.098,0.089,0.256,0.307,0.329,0.341
						c-0.13-0.186-0.175-0.144-0.318-0.368l0.072,0.033c0.12,0.137,0.288,0.299,0.363,0.4c-0.012-0.023-0.014-0.037,0.003-0.03
						c0.18,0.188,0.264,0.215,0.413,0.42c-0.004,0.046-0.086-0.078-0.163-0.154c0.154,0.202,0.109,0.144,0.257,0.336
						c-0.013,0.027-0.104-0.135-0.141-0.143l0.178,0.216l-0.004,0.003c0.058,0.005,0.128,0.17,0.242,0.298
						c0.252,0.318,0.333,0.335,0.483,0.505c0.024,0.057,0.025,0.078,0.002,0.063c-0.039-0.094-0.042-0.071-0.07-0.093
						c0.08,0.112,0.132,0.273,0.075,0.219c0.131,0.174-0.024-0.078,0.06,0.025l0.163,0.25c-0.001-0.041-0.056-0.132,0.044-0.012
						c0.077,0.105,0.108,0.16,0.202,0.303c-0.022-0.015,0.001,0.062-0.068-0.045c0.042,0.071,0.104,0.183,0.146,0.216
						c-0.074-0.173,0.165,0.257,0.127,0.119l0.073,0.173c-0.021-0.038-0.035-0.035-0.062-0.091
						c-0.003,0.063,0.082,0.128,0.117,0.184c0.026,0.061,0.107,0.21,0.103,0.229c0.037,0.047,0.102,0.176,0.1,0.208
						c0.049,0.073,0.022-0.004,0.045,0.013c0.006-0.003,0.128,0.269,0.128,0.269c-0.01,0.022-0.045,0.067-0.07,0.03
						c0.063,0.095,0.065,0.013,0.136,0.168c-0.073-0.073,0.069,0.215-0.028,0.105c0.017,0.1,0.134,0.35,0.206,0.484
						c0.065,0.075-0.055-0.156-0.024-0.159c0.195,0.383,0.261,0.386,0.36,0.687l-0.021-0.08c0.083,0.18,0.071,0.16,0.134,0.26
						c-0.052-0.039-0.014,0.243,0.104,0.543c0.027,0.021-0.029-0.181,0.017-0.14c-0.001,0,0.076,0.202,0.071,0.204
						c0.001,0.016-0.011-0.005-0.022-0.03c0.063,0.183,0.049,0.359,0.104,0.402v0.203l0.001-0.081
						c0.024,0.021,0.086,0.229,0.104,0.271c0.073,0.209,0.089,0.289,0.082,0.413c0.009-0.041,0.025-0.142,0.06,0.028
						c-0.057,0.01,0.041,0.364,0.011,0.364c0.013,0.069,0.016,0.194,0.041,0.198l-0.037-0.005c0.052,0.008,0.094,0.26,0.136,0.452
						c-0.069-0.036,0.029,0.213-0.028,0.308c0.049,0.032,0.046,0.345,0.088,0.376c0.015,0.151-0.03,0.139-0.042,0.178l0.023,0.069
						c-0.017,0.078,0.003,0.36,0.001,0.529l0.054,0.155l-0.02,0.059c0.011,0.024,0.016,0.155,0.031,0.074l-0.003,0.085
						c0.045,0.006,0.012,0.119,0.03,0.289c-0.007,0.04-0.018,0.029-0.023-0.008c-0.001,0.085-0.024,0.049-0.039,0.095
						c0.012-0.061,0.079,0.306,0.1,0.076c0.019-0.016,0.031,0.119,0.023,0.202l-0.041,0.051l0.042,0.101
						c0.006,0.131-0.021,0.187-0.025,0.292c-0.002-0.109-0.077-0.243-0.077,0.036c-0.005-0.147-0.026-0.22-0.035-0.295
						c-0.001,0.058-0.006,0.086-0.022-0.004c0.012,0.218,0.024,0.073,0.028,0.289c-0.035-0.013-0.048,0.047-0.061,0.234l0.027-0.139
						c0.004,0.007,0.007,0.016,0.01,0.027c0.004-0.054,0.01-0.068,0.023-0.079c-0.002,0.042,0.046,0.252,0.019,0.287
						c0.076-0.213,0.008,0.38,0.055,0.244c0.008,0.026-0.005,0.176-0.024,0.191c-0.01-0.183-0.054,0.132-0.076,0.101
						c0.004,0.067,0.04-0.139,0.045-0.048c-0.008,0.107-0.037,0.185-0.055,0.243l-0.002-0.046l-0.032,0.164
						c0.016,0.028,0.046-0.157,0.041-0.004c-0.012,0.039-0.018,0.193-0.031,0.187c-0.018-0.075-0.056-0.026-0.049-0.156
						c-0.008,0.107-0.036,0.449,0.01,0.315l-0.013,0.129c0.022-0.079,0.071-0.302,0.052-0.043l-0.007-0.003l0.01,0.183l-0.026,0.076
						c0.009-0.001,0.018,0.029,0.006,0.095c-0.015,0.015-0.032,0.076-0.046,0.068c-0.038,0.189-0.018,0.177-0.012,0.203
						c-0.021,0.106-0.036,0.145-0.047,0.092c-0.036,0.143-0.086,0.396-0.125,0.49c-0.025,0.197,0.016-0.038,0.016,0.081
						c-0.096,0.15-0.155,0.635-0.254,0.946c0.077-0.068-0.02,0.087,0.009,0.157c0.005-0.07-0.135,0.278-0.063,0.005l-0.048,0.166
						c-0.064,0.102,0.066-0.277-0.028-0.122c-0.057,0.183-0.044,0.321-0.147,0.521c-0.006-0.084-0.057,0.161-0.073,0.093
						c0.005-0.048,0.034-0.102,0.056-0.159l-0.022,0.032c-0.178,0.365,0.001,0.132-0.075,0.33c-0.116,0.217-0.12,0.152-0.143,0.154
						c-0.028,0.021-0.092,0.109-0.119,0.162c0.063-0.12,0.176-0.179,0.156-0.117c-0.051,0.026-0.103,0.091-0.146,0.156
						c-0.052,0.037-0.094,0.088-0.113,0.113c0.127-0.059,0.178-0.093,0.208-0.144c0.032-0.049,0.081-0.072,0.181-0.213
						c0.009-0.05-0.022-0.056,0.08-0.231c-0.034,0.126,0.023,0.001,0.044-0.029c-0.037,0.026,0.049-0.135,0.065-0.195
						c0.038-0.048,0.005,0.136,0.088-0.059l-0.036-0.057c0.036-0.074,0.024,0.047,0.073-0.122c-0.006,0.099,0.052-0.013-0.023,0.215
						c0.146-0.252,0.124-0.423,0.171-0.64c0,0.014,0,0.036,0,0.05c0-0.05,0.025-0.132,0.041-0.195
						c0.055-0.138-0.01,0.118,0.016,0.086l0.066-0.229c0.003-0.005,0.004-0.005,0.006-0.005c0.01-0.063,0.022-0.121,0.039-0.139
						c0.003,0.057,0.006,0.11,0.009,0.155c-0.001,0,0.024-0.254,0.024-0.254c0.011,0.032,0.073-0.193,0.048-0.016l0.071-0.365
						l0.042-0.022c0.013-0.089,0.006-0.093-0.021,0.011c0.035-0.123,0.057-0.564,0.113-0.484c0.022-0.292,0.087-0.389,0.093-0.744
						c0.007,0.275,0.071-0.304,0.06-0.016c0.032-0.166-0.004-0.205,0.003-0.338c0.027-0.122,0.058-0.063,0.058,0.072l-0.001-0.159
						l0.007,0.003l-0.008-0.139c0.033-0.144,0.04-0.027,0.06-0.178l-0.029-0.035l0.028-0.1c-0.019,0.036-0.017-0.053-0.009-0.162
						l0.008,0.003l0.006-0.133c0.008,0.132,0.019-0.121,0.036-0.059c0.012-0.113,0.018-0.115,0.011-0.321l-0.022,0.035
						c-0.018-0.269,0.033-0.01,0.036-0.227l-0.025,0.013c0.044-0.312-0.021-0.53,0.007-0.76c0.005,0.132,0.035,0.099,0.027,0.096
						c-0.011-0.199,0.006-0.524-0.035-0.728c0.031-0.077,0.041-0.095,0.04-0.308c-0.014-0.153-0.02-0.176-0.045-0.225
						c0.003-0.149-0.04-0.427-0.015-0.437c-0.023-0.032-0.006-0.134-0.03-0.214l0.009-0.019l-0.023,0.016
						c0.042-0.271-0.074-0.44-0.075-0.71l0.015,0.044l-0.029-0.11c0.008-0.02,0.022,0.025,0.038,0.028l-0.085-0.519l-0.001,0.105
						c-0.021-0.108-0.059-0.176-0.064-0.304c0.074,0.198-0.027-0.173-0.017-0.209l0.039,0.106c-0.043-0.148-0.043-0.148-0.064-0.13
						c-0.061-0.19,0.012-0.144-0.063-0.315l0.033,0.127c-0.005,0.041-0.05-0.045-0.071-0.13c-0.002-0.021-0.007-0.083,0.014-0.02
						c-0.05-0.149-0.099-0.38-0.126-0.444c-0.015-0.084,0.01-0.063,0.028-0.02c-0.11-0.318-0.028-0.15-0.163-0.461l0.016,0.001
						l-0.057-0.103l-0.027-0.166l0.003,0.063c-0.04-0.103-0.073-0.165-0.109-0.289l0.037,0.042c-0.122-0.287-0.079-0.357-0.23-0.616
						c-0.005-0.02,0.021,0.019,0.034,0.04c-0.146-0.236-0.052-0.204-0.205-0.439c0.014,0.013,0.009-0.019,0.019-0.011l-0.065-0.109
						l0.03-0.003l-0.081-0.075l-0.006-0.083l-0.033-0.039c-0.007-0.146-0.119-0.304-0.178-0.48l-0.017,0.044
						c-0.299-0.366-0.467-0.958-0.824-1.398l0.029-0.008l-0.156-0.174c-0.051-0.116,0.062,0.048,0.053,0.008
						c-0.151-0.198-0.093-0.062-0.26-0.297c-0.065-0.134,0.046,0.031,0.093,0.083c-0.151-0.224-0.426-0.516-0.525-0.681
						c-0.006-0.001-0.017-0.007-0.012,0.001c-0.121-0.134-0.256-0.33-0.38-0.484c0.014-0.006,0.045,0.032,0.077,0.069
						c-0.04-0.059-0.099-0.137-0.15-0.173l0.069,0.039c-0.099-0.117-0.312-0.32-0.313-0.365c0.004,0.021-0.018,0.03-0.104-0.069
						c-0.016-0.084-0.253-0.254-0.377-0.427c0.024,0.012,0.13,0.125,0.101,0.092c-0.061-0.088-0.143-0.142-0.221-0.195l0.033,0.007
						l-0.371-0.324c-0.022-0.083-0.339-0.317-0.293-0.318c-0.125-0.123,0.094,0.117-0.07-0.034
						c-0.028-0.057-0.153-0.129-0.128-0.144l0.021,0.013l-0.12-0.098l0.094,0.042c-0.107-0.082-0.201-0.123-0.221-0.111
						c-0.086-0.093-0.232-0.199-0.26-0.255l0.04,0.024c-0.279-0.22-0.401-0.444-0.663-0.565c-0.015-0.015-0.008-0.02,0.027,0.006
						l-0.178-0.131l0.055,0.014l-0.314-0.187l0.012-0.009c-0.187-0.153-0.507-0.354-0.776-0.508l0.043,0.019
						c-0.3-0.159-0.271-0.184-0.49-0.301l0.025,0.009c0,0-0.188-0.119-0.191-0.115l0.051,0.012c-0.161-0.052-0.4-0.255-0.322-0.186
						c-0.09-0.031-0.24-0.091-0.273-0.087c-0.216-0.111-0.044-0.044-0.172-0.125c-0.146-0.069-0.178-0.083-0.404-0.19l0.011-0.011
						c-0.098-0.037-0.182-0.068-0.316-0.118l0.046,0.012c-0.246-0.071-0.276-0.164-0.483-0.183
						c-0.094-0.052-0.283-0.124-0.264-0.146c-0.325-0.092-0.552-0.156-0.846-0.24c-0.034-0.061-0.065-0.018-0.238-0.104l0.006,0.029
						c-0.433-0.097-0.911-0.307-1.402-0.364L24.8,9.834l-0.103,0.014c-0.523-0.081-1.202-0.201-1.627-0.186
						c-0.139,0.01-0.349,0.035-0.568,0.02l0.023-0.003c-0.383-0.013-0.782,0.047-1.198,0.06c0.025-0.012-0.017-0.017,0.029-0.027
						c-0.097,0.036-0.244,0.02-0.333,0.026L21.13,9.75c-0.116,0.033-0.287,0.022-0.35,0.008c0,0-0.183,0.045-0.182,0.049
						c-0.013,0-0.032-0.001-0.035-0.005l-0.031,0.019L20.43,9.805c-0.045,0.014-0.287,0.064-0.358,0.109
						c-0.019-0.008-0.192,0.013-0.061-0.016l-0.675,0.105l0.108-0.006c0.018,0.025-0.182,0.067-0.285,0.089
						c0.13-0.055,0.003-0.038-0.058-0.042c-0.087,0.037,0.083,0.001,0.039,0.028c-0.109,0.046-0.344,0.117-0.407,0.122l0.065-0.027
						c-0.15,0.049-0.232,0.025-0.382,0.066c-0.13,0.056-0.235,0.064-0.195,0.099c-0.193,0.06-0.083-0.009-0.148,0.004
						c-0.088,0.038-0.361,0.111-0.4,0.106c-0.084,0.098-0.521,0.16-0.542,0.225l-0.167,0.026c0,0.016-0.02,0.057-0.145,0.107
						c-0.125,0.028-0.105-0.006-0.147-0.007l-0.061,0.079c-0.694,0.226-1.561,0.648-2.276,1.003
						c-0.315,0.167-0.684,0.431-1.039,0.656l0.036-0.031l-0.359,0.214l0.269-0.144c-0.073,0.054-0.127,0.102-0.201,0.148
						c-0.391,0.235-0.886,0.598-1.303,0.975c-0.227,0.293-0.214,0.123-0.44,0.393c0.01-0.018,0.024-0.042,0.036-0.061
						c-0.258,0.273-0.416,0.405-0.637,0.713c-0.016-0.074-0.165,0.18-0.166,0.133l-0.002,0.04c-0.068,0.051-0.205,0.192-0.199,0.159
						l-0.089,0.143l-0.029-0.006c-0.16,0.152-0.434,0.537-0.543,0.597c-0.324,0.44-0.819,1.138-1.195,1.709
						c-0.088,0.173-0.146,0.286-0.206,0.402l-0.107,0.13c-0.069,0.144-0.117,0.309-0.206,0.428
						c-0.002-0.002-0.001-0.009,0.001-0.019c-0.07,0.145-0.166,0.268-0.203,0.417c-0.075,0.16-0.16,0.309-0.164,0.247
						c0.039,0.037-0.161,0.337-0.161,0.337c0,0-0.265,0.503-0.552,1.343c-0.32,0.827-0.611,2.005-0.789,3.27
						c-0.139,1.271-0.128,2.629,0.07,3.781c0.078,0.577,0.248,1.093,0.354,1.539c0.137,0.439,0.302,0.79,0.413,1.042
						c0.047,0.063,0.125,0.251,0.129,0.166c0.057,0.146,0.039,0.23,0.071,0.251c-0.051-0.209,0.081,0.039,0.045-0.17l0.047,0.125
						c0.025,0.02-0.075-0.165-0.035-0.146l-0.055-0.02c-0.027-0.105-0.036-0.165-0.033-0.206C7.047,30.341,6.967,30.3,6.918,30.06
						l0.023,0.063c-0.063-0.188-0.009-0.124-0.014-0.165l0.013,0.041l-0.029-0.165c0.024,0.125,0.125,0.311,0.088,0.208
						c-0.06-0.228,0.008,0.062-0.052-0.104c-0.036-0.104-0.003-0.081,0.013-0.081L6.897,29.67c0.023,0,0.039,0.123,0.036,0.042
						l-0.098-0.229c0.035-0.057-0.084-0.256-0.06-0.378c0.05,0.17,0.015-0.02,0.038,0.003L6.72,28.686
						c-0.001-0.041,0.04,0.107,0.023,0.044c-0.002-0.082-0.041-0.128-0.05-0.171c0.007-0.039-0.068-0.316-0.03-0.311
						c-0.037-0.291-0.074-0.113-0.087-0.388c0.018-0.039,0.029,0.215,0.039,0.091l-0.039-0.28c0.013,0.024,0.042,0.05,0.048,0.156
						c-0.058-0.766,0.002-1.178-0.015-1.87c0.025-0.098,0.018,0.07,0.037,0.139c-0.039-0.501,0.036-0.704,0.08-1.126l-0.021-0.009
						c0.061-0.293,0.087-0.618,0.126-0.951c0.062-0.326,0.122-0.647,0.188-0.998l-0.028,0.076c-0.003-0.094,0.016-0.243,0.031-0.352
						c0.015-0.014,0.025,0.087,0.066-0.103c-0.018,0.037-0.047,0.114-0.051,0.088c0.102-0.272,0.228-0.701,0.361-1.175
						c0.175-0.461,0.344-0.974,0.542-1.402c0.471-1.191,1.22-2.366,1.944-3.385c-0.116,0.151-0.11,0.056-0.011-0.051
						c0.317-0.253,0.406-0.551,0.709-0.822c0.468-0.562,0.965-0.983,1.43-1.478l0.027,0.01c0.082-0.06,0.09-0.091,0.167-0.166
						l0.003,0.007c0.189-0.165,0.423-0.357,0.541-0.44l-0.011-0.028c0.116-0.093,0.075-0.03,0.186-0.137l0.005,0.014l0.124-0.131
						c0.013,0.046,0.337-0.252,0.457-0.289c0.156-0.111,0.453-0.328,0.703-0.478c0.055-0.013,0.378-0.176,0.585-0.275
						c0.386-0.228,0.955-0.521,1.486-0.729l-0.022-0.026l0.135-0.063c0.001,0.007,0.021,0.003,0.001,0.015
						c0.121-0.01,0.308-0.155,0.429-0.172c-0.082-0.004-0.098,0.034-0.176,0.067c-0.117,0.036-0.024-0.044,0.135-0.091v0.008
						l0.1-0.054c0.021,0.02,0.122-0.003,0.143,0.016c0.46-0.161,0.753-0.339,1.244-0.462c-0.042,0.041,0.349-0.099,0.264-0.026
						c0.288-0.095-0.059-0.025,0.066-0.095c0.082-0.021,0.165-0.057,0.184-0.043c-0.036,0.022,0.074,0.012,0.009,0.034l0.194-0.055
						c0.02-0.001-0.021,0.017-0.042,0.025c0.39-0.145,0.717-0.135,1.075-0.223c0.024-0.022-0.145,0.02-0.122-0.002
						c0.36-0.098,0.329-0.023,0.667-0.107L20.5,10.55c0.107-0.033,0.152-0.072,0.337-0.07c0.035,0.022-0.152,0.039-0.237,0.072
						c0.123-0.03,0.44-0.055,0.34-0.075c0.15-0.021,0.208,0.001,0.289,0.003c0.002-0.007-0.142-0.009-0.055-0.029
						c0.207,0.001,0.523-0.023,0.773-0.04c-0.002,0.007,0.016,0.017-0.006,0.022C22.142,10.379,22.123,10.442,22.398,10.444z"/>
					<path fill="#2A559D" d="M33.983,16.292l-0.06-0.084c-0.005,0.004-0.014,0.005-0.048-0.028L33.983,16.292z"/>
					<path fill="#2A559D" d="M30.483,12.941c-0.011-0.004-0.021-0.009-0.034-0.015C30.47,12.94,30.479,12.942,30.483,12.941z"/>
					<path fill="#2A559D" d="M29.469,12.339c0.075,0.039,0.016-0.007-0.017-0.035C29.448,12.308,29.446,12.315,29.469,12.339z"/>
					<path fill="#2A559D" d="M35.563,18.548c-0.011-0.014-0.02-0.022-0.023-0.017C35.556,18.55,35.562,18.553,35.563,18.548z"/>
					<path fill="#2A559D" d="M37.261,25.892c0.001-0.01,0.002-0.017,0.004-0.03C37.263,25.867,37.262,25.877,37.261,25.892z"/>
					<path fill="#2A559D" d="M37.309,25.467c-0.001-0.019-0.002-0.041-0.004-0.086C37.303,25.419,37.305,25.446,37.309,25.467z"/>
					<path fill="#2A559D" d="M34.583,16.979c-0.017-0.023-0.033-0.045-0.052-0.062C34.556,16.954,34.571,16.97,34.583,16.979z"/>
					<polygon fill="#2A559D" points="37.299,25.293 37.302,25.186 37.297,25.185 					"/>
					<path fill="#2A559D" d="M37.256,26.026c0.002-0.042,0.003-0.091,0.005-0.134C37.252,25.945,37.252,25.987,37.256,26.026z"/>
					<path fill="#2A559D" d="M36.696,21.109l-0.003-0.011C36.659,21.022,36.678,21.07,36.696,21.109z"/>
					<polygon fill="#2A559D" points="37.239,24.829 37.239,24.814 37.229,24.783 					"/>
					<path fill="#2A559D" d="M37.243,26.486c-0.001-0.02-0.002-0.039-0.005-0.053c-0.002,0.018-0.003,0.036-0.004,0.06
						C37.238,26.488,37.24,26.486,37.243,26.486z"/>
					<path fill="#2A559D" d="M37.027,22.671c0.016,0.027,0.024,0.038,0.03,0.038C37.052,22.674,37.043,22.653,37.027,22.671z"/>
				</g>
			</g>
		</g>
	</g>
</g>
<g>
	<linearGradient id="SVGID_1_" gradientUnits="userSpaceOnUse" x1="7.666" y1="31.7549" x2="16.9355" y2="31.7549">
		<stop  offset="0" style="stop-color:#4FA0D8"/>
		<stop  offset="0.3366" style="stop-color:#4A97D1"/>
		<stop  offset="0.8945" style="stop-color:#3C7DC0"/>
		<stop  offset="0.9944" style="stop-color:#3978BC"/>
	</linearGradient>
	<path fill="url(#SVGID_1_)" d="M7.753,32.459l0.235-0.204h0.088c0.068,0,0.171-0.073,0.307-0.222l0.146-0.058
		c0.196-0.293,0.367-0.463,0.513-0.513l0.235-0.175c0.038-0.04,0.095-0.074,0.168-0.103c0.073-0.03,0.19-0.125,0.352-0.285
		c0.161-0.162,0.291-0.242,0.389-0.242c0.098,0,0.175,0.01,0.234,0.028c0.059-0.117,0.176-0.232,0.353-0.343
		c0.175-0.112,0.317-0.247,0.425-0.402l0.19-0.09c0.156-0.077,0.296-0.178,0.418-0.299c0.122-0.123,0.281-0.182,0.477-0.182
		c0.283,0,0.578,0.143,0.886,0.43c0.308,0.288,0.462,0.564,0.462,0.828l-0.249,1.143c-0.166,0.84-0.351,1.279-0.556,1.316
		l-0.059,0.309c-0.137,0.098-0.206,0.175-0.206,0.234l0.088,0.352c0,0.049-0.054,0.122-0.161,0.219c-0.02,0-0.03,0.031-0.03,0.089
		v0.6c0,0.107-0.068,0.195-0.205,0.265c0.02,0.019,0.048,0.038,0.088,0.058c0.059-0.058,0.19-0.087,0.395-0.087l0.235,0.029
		l0.321-0.322c0.068-0.02,0.163-0.066,0.285-0.14c0.121-0.072,0.329-0.168,0.621-0.285l0.247-0.314l0.193-0.247l0.343-0.528
		c0,0,0.348-0.223,0.468-0.36c0.078-0.089,0.252-0.379,0.252-0.379c0.263-0.266,0.876-0.031,1.013-0.031
		c0.146,0,0.22,0.094,0.22,0.279c0,0.215-0.171,0.21-0.254,0.353c-0.083,0.141-0.406,0.233-0.474,0.433
		c-0.068,0.201-0.223,0.398-0.316,0.477c-0.093,0.077-0.257,0.224-0.316,0.315c-0.058,0.094,0.134,0.339-0.125,0.514
		c-0.258,0.177-0.29,0.386-0.47,0.565c-0.18,0.182-0.329,0.312-0.446,0.389l-0.629,0.453l-0.088,0.147
		c-0.02,0.02-0.11,0.062-0.271,0.125s-0.304,0.144-0.432,0.24l-0.264,0.148c-0.059,0.038-0.153,0.063-0.285,0.072
		c-0.132,0.009-0.247,0.065-0.344,0.168s-0.176,0.154-0.234,0.154l-0.22-0.029l-0.292,0.088c-0.167,0-0.369-0.101-0.608-0.301
		c-0.239-0.201-0.358-0.412-0.358-0.637v-0.088l0.03-0.204c0-0.04-0.03-0.14-0.088-0.301c-0.058-0.161-0.088-0.251-0.088-0.27
		l0.03-0.208l-0.03-0.086c0-0.265,0.02-0.43,0.059-0.499c0.038-0.066,0.068-0.163,0.087-0.285s0.038-0.221,0.059-0.302l0.074-0.365
		c0.038-0.117,0.087-0.194,0.146-0.233c0.02-0.079,0.059-0.21,0.117-0.396l0.059-0.264l0.146-0.206
		c0.079-0.076,0.124-0.183,0.139-0.313c0.015-0.132,0.066-0.271,0.154-0.417c0.088-0.148,0.132-0.234,0.132-0.265
		c0-0.117-0.059-0.176-0.176-0.176c-0.039,0-0.161,0.08-0.366,0.234l-0.264-0.087c-0.02,0-0.074,0.049-0.161,0.145
		c0,0.041-0.044,0.07-0.131,0.09c-0.088,0.021-0.171,0.092-0.25,0.219l-0.117,0.03l-0.19-0.088H9.819
		c-0.098,0-0.156,0.107-0.176,0.322c-0.107,0.155-0.249,0.259-0.425,0.306l-0.321,0.089c-0.109,0.04-0.186,0.127-0.235,0.263
		c-0.049,0.139-0.146,0.262-0.293,0.375c-0.146,0.112-0.244,0.167-0.292,0.167c-0.273,0-0.41-0.15-0.41-0.452l0.117-0.689
		L7.753,32.459z M13.211,27.684l-0.088-0.57v-0.09c0-0.459,0.156-0.713,0.469-0.76c0.068-0.012,0.272-0.074,0.615-0.191
		c0.176,0.039,0.358,0.194,0.549,0.462c0.19,0.268,0.285,0.505,0.285,0.71c0,0.02-0.014,0.063-0.044,0.131
		c-0.029,0.069-0.049,0.197-0.059,0.389c-0.01,0.189-0.105,0.355-0.286,0.498c-0.181,0.141-0.373,0.213-0.578,0.213
		c-0.137,0-0.311-0.097-0.52-0.287C13.345,27.998,13.23,27.829,13.211,27.684z"/>
	<linearGradient id="SVGID_2_" gradientUnits="userSpaceOnUse" x1="15.4507" y1="33.748" x2="26.2217" y2="33.748">
		<stop  offset="0" style="stop-color:#3978BC"/>
		<stop  offset="0.4281" style="stop-color:#346FB5"/>
		<stop  offset="0.9944" style="stop-color:#295BA6"/>
	</linearGradient>
	<path fill="url(#SVGID_2_)" d="M16.721,31.608l0.052-0.104c0.285,0,0.471-0.117,0.558-0.35l0.052-0.052
		c0.311-0.104,0.533-0.223,0.667-0.356c0.134-0.135,0.376-0.257,0.726-0.369c0.35-0.112,0.533-0.169,0.551-0.169
		c0.052,0,0.21,0.077,0.474,0.233c0.263,0.155,0.395,0.449,0.395,0.881c0,0.312-0.086,0.602-0.259,0.869v0.401l-0.026,0.104
		c-0.146,0.104-0.221,0.222-0.221,0.35v0.104l0.026,0.377l-0.363,0.791c-0.146,0.069-0.22,0.129-0.22,0.181
		c0,0.035,0.037,0.076,0.11,0.123c0.073,0.048,0.109,0.115,0.109,0.201c0,0.096-0.025,0.273-0.077,0.532
		c0.017,0.018,0.034,0.024,0.052,0.024h0.052c0.034-0.067,0.104-0.119,0.207-0.155l0.13-0.09c0.018-0.096,0.048-0.164,0.091-0.208
		h0.155c0.069,0,0.104-0.068,0.104-0.207c0-0.052,0.19-0.274,0.57-0.668c0.381-0.393,0.612-0.646,0.693-0.758
		c0.083-0.112,0.171-0.205,0.267-0.279c0.094-0.072,0.151-0.147,0.168-0.227c0.018-0.077,0.066-0.151,0.149-0.22
		c0.083-0.069,0.149-0.141,0.201-0.214c0.052-0.074,0.125-0.141,0.22-0.201c0.096-0.061,0.192-0.164,0.292-0.312
		c0.1-0.146,0.309-0.354,0.629-0.622c0.052-0.043,0.111-0.121,0.181-0.233s0.197-0.227,0.383-0.343
		c0.185-0.117,0.362-0.26,0.532-0.429c0.169-0.168,0.455-0.252,0.861-0.252c0.233,0,0.46,0.11,0.681,0.33
		c0.221,0.221,0.33,0.448,0.33,0.68c0,0.122-0.021,0.215-0.063,0.279c-0.045,0.065-0.116,0.176-0.215,0.331
		c-0.1,0.155-0.193,0.233-0.279,0.233l-0.232-0.078c-0.165,0.164-0.333,0.247-0.506,0.247l-0.246-0.052
		c-0.155,0.104-0.28,0.159-0.376,0.168s-0.176,0.061-0.239,0.155c-0.064,0.095-0.136,0.149-0.214,0.162
		c-0.078,0.014-0.164,0.054-0.26,0.123l-0.207,0.104c-0.086,0.216-0.272,0.377-0.557,0.48c-0.104,0.104-0.2,0.225-0.286,0.363
		c0,0.024-0.04,0.061-0.123,0.104c-0.082,0.043-0.166,0.121-0.253,0.232c-0.086,0.113-0.155,0.169-0.207,0.169h-0.116
		c-0.069,0.077-0.121,0.198-0.155,0.362c-0.035,0.164-0.178,0.277-0.428,0.337c-0.034,0.018-0.086,0.081-0.155,0.188
		c-0.069,0.108-0.169,0.192-0.299,0.253c-0.052,0.198-0.164,0.359-0.337,0.48l-0.155,0.271c-0.043,0.086-0.127,0.17-0.253,0.253
		c-0.125,0.081-0.192,0.132-0.2,0.149c-0.009,0.017-0.064,0.131-0.169,0.343c-0.104,0.211-0.218,0.349-0.344,0.407
		c-0.125,0.063-0.248,0.158-0.369,0.293c-0.121,0.133-0.225,0.201-0.312,0.201c-0.302,0-0.626-0.247-0.972-0.739
		c-0.345-0.493-0.518-0.804-0.518-0.934c0-0.483,0.067-0.861,0.201-1.135c0.134-0.271,0.213-0.53,0.239-0.777
		c0.026-0.246,0.074-0.459,0.143-0.642l0.078-0.401l0.104-0.182c0.061-0.069,0.112-0.186,0.155-0.351l0.065-0.207
		c0-0.156-0.047-0.232-0.143-0.232c-0.121,0-0.225,0.076-0.311,0.232l-0.052,0.052c-0.216-0.052-0.039-0.093-0.283,0.151
		c-0.198,0.197-0.191,0.401-0.198,0.435c-0.017,0.092-0.474,0.349-0.612,0.375c-0.138,0.025,0.038-0.304-0.126-0.053l-0.065,0.052
		c-0.078,0.018-0.129,0.035-0.155,0.052c-0.122,0.199-0.208,0.298-0.26,0.298c-0.052,0-0.106-0.05-0.162-0.149
		c-0.056-0.099-0.127-0.176-0.214-0.228s-0.13-0.116-0.13-0.193c0-0.199,0.194-0.453,0.583-0.765
		c0.086-0.068,0.138-0.134,0.155-0.194c0.018-0.061,0.134-0.1,0.35-0.116C16.574,31.864,16.635,31.773,16.721,31.608z"/>
	<linearGradient id="SVGID_3_" gradientUnits="userSpaceOnUse" x1="24.1816" y1="33.6113" x2="35.7031" y2="33.6113">
		<stop  offset="0" style="stop-color:#295BA6"/>
		<stop  offset="0.4644" style="stop-color:#23529D"/>
		<stop  offset="0.9944" style="stop-color:#18418C"/>
	</linearGradient>
	<path fill="url(#SVGID_3_)" d="M33.831,33.838l0.205-0.181c0.131,0,0.208-0.059,0.232-0.176c0.027-0.116,0.118-0.209,0.279-0.279
		c0.16-0.067,0.309-0.208,0.446-0.421c0.136-0.211,0.279-0.317,0.425-0.317c0.052,0,0.113,0.044,0.183,0.13
		c0.067,0.087,0.102,0.155,0.102,0.208c0,0.285-0.087,0.578-0.26,0.881l-0.049,0.363l-0.092,0.169
		c-0.131,0.069-0.215,0.142-0.254,0.22c-0.037,0.078-0.139,0.173-0.304,0.285l-0.129,0.182c-0.189,0.061-0.318,0.16-0.382,0.299
		c-0.064,0.138-0.156,0.216-0.272,0.231c-0.118,0.019-0.244,0.104-0.382,0.26c-0.087,0.044-0.19,0.083-0.312,0.117l-0.027,0.13
		c-0.086,0.086-0.222,0.155-0.407,0.207s-0.323,0.102-0.415,0.149c-0.091,0.047-0.152,0.07-0.188,0.07
		c-0.165,0-0.315-0.032-0.454-0.096c-0.139-0.065-0.279-0.106-0.427-0.124c-0.053-0.052-0.082-0.107-0.092-0.168
		c-0.008-0.061-0.052-0.141-0.128-0.24c-0.079-0.099-0.116-0.235-0.116-0.409l0.052-0.245c0-0.035-0.022-0.078-0.066-0.13
		c-0.042-0.052-0.064-0.095-0.064-0.13c0-0.034,0.01-0.061,0.027-0.077c0.017-0.018,0.024-0.044,0.024-0.078
		c0-0.043-0.008-0.09-0.024-0.142c-0.018-0.053-0.027-0.096-0.027-0.131l0.079-0.635c0-0.052-0.018-0.078-0.052-0.078
		c-0.035,0-0.1,0.043-0.188,0.13c-0.091,0.086-0.197,0.13-0.318,0.13c-0.068,0.052-0.126,0.16-0.168,0.324
		c-0.068,0.087-0.155,0.164-0.259,0.232l-0.052,0.079c-0.018,0.061-0.084,0.109-0.195,0.147c-0.113,0.04-0.19,0.089-0.234,0.149
		l-0.129,0.13l-0.246-0.026c-0.018,0.018-0.064,0.093-0.144,0.228c-0.076,0.134-0.178,0.244-0.299,0.33l-0.983,0.805
		c-0.104,0.069-0.256,0.155-0.453,0.259l-0.079,0.077c-0.691,0.459-1.181,0.688-1.465,0.688c-0.234,0-0.506-0.065-0.816-0.194
		c-0.312-0.131-0.479-0.286-0.507-0.467l-0.128-0.531c-0.079-0.121-0.117-0.289-0.117-0.505c0-0.104,0.009-0.173,0.025-0.208V35.38
		l-0.025-0.427c0-0.104,0.082-0.155,0.245-0.155l-0.024-0.351c0-0.033,0.074-0.171,0.226-0.408c0.152-0.238,0.253-0.374,0.306-0.408
		l0.129-0.169c-0.009-0.104,0.052-0.214,0.182-0.33c0.13-0.117,0.234-0.235,0.312-0.356c0.079-0.121,0.226-0.254,0.441-0.402
		l0.391-0.388c0.301-0.303,0.631-0.546,0.984-0.726c0.053-0.018,0.158-0.104,0.319-0.26c0.16-0.155,0.341-0.271,0.545-0.345
		c0.203-0.072,0.402-0.165,0.596-0.277c0.194-0.112,0.351-0.169,0.461-0.169h0.104c0.034,0,0.264-0.107,0.688-0.324h0.076
		c0.035,0,0.119,0.035,0.247,0.104h0.027l0.207-0.104c0.035-0.017,0.077-0.025,0.129-0.025c0.538,0,0.832,0.372,0.884,1.113
		c0.018,0.156,0.06,0.235,0.129,0.235c0.086,0,0.209-0.158,0.37-0.475c0.16-0.314,0.498-0.473,1.017-0.473
		c0.373,0,0.559,0.238,0.559,0.712c0,0.563-0.25,1.094-0.751,1.596c-0.034,0.068-0.062,0.146-0.079,0.233l-0.18,0.531v0.025
		c0,0.052-0.037,0.123-0.111,0.215c-0.074,0.09-0.111,0.17-0.111,0.239l0.027,0.323l-0.052,0.363c0,0.165,0.029,0.272,0.091,0.324
		c0.274-0.069,0.475-0.184,0.601-0.343c0.126-0.161,0.212-0.248,0.264-0.266l0.131-0.052C33.637,34.032,33.728,33.925,33.831,33.838
		z M29.525,33.838c0.035-0.189,0.141-0.334,0.318-0.435c0.178-0.099,0.284-0.201,0.318-0.305c0.163-0.119,0.398-0.336,0.707-0.646
		c0.306-0.312,0.459-0.501,0.459-0.57c0-0.027-0.018-0.04-0.052-0.04h-0.025l-0.104,0.064l-0.234-0.024l-0.247,0.024l-0.18-0.09
		l-0.168,0.025l-0.26-0.052c-0.138,0-0.259,0.028-0.357,0.084c-0.099,0.057-0.289,0.12-0.57,0.188
		c-0.282,0.07-0.533,0.189-0.759,0.357c-0.225,0.169-0.39,0.253-0.493,0.253c-0.06,0.13-0.263,0.315-0.607,0.558
		c-0.209,0.069-0.344,0.22-0.402,0.453c-0.225,0.182-0.339,0.285-0.339,0.312l-0.09,0.221c-0.069,0.061-0.155,0.109-0.259,0.148
		c-0.104,0.039-0.165,0.129-0.182,0.272c-0.018,0.142-0.077,0.271-0.176,0.389c-0.099,0.116-0.147,0.21-0.147,0.279
		c0,0.424,0.081,0.635,0.245,0.635c0.069,0,0.214-0.046,0.435-0.136c0.221-0.092,0.347-0.153,0.382-0.188
		c0.034-0.035,0.104-0.069,0.207-0.104l0.247-0.131c0.034-0.033,0.074-0.056,0.117-0.063c0.043-0.009,0.085-0.037,0.13-0.084
		c0.042-0.049,0.121-0.101,0.233-0.156c0.112-0.057,0.198-0.132,0.258-0.227c0.148-0.087,0.385-0.22,0.714-0.402l0.271-0.208
		c0.189-0.085,0.309-0.159,0.351-0.22C29.311,33.959,29.397,33.898,29.525,33.838z"/>
</g>
</svg>
